<?xml version="1.0" encoding="UTF-8"?>
<svg version="1.1" xmlns="http://www.w3.org/2000/svg" width="500" height="500">
<path d="M0 0 C165 0 330 0 500 0 C500 165 500 330 500 500 C335 500 170 500 0 500 C0 335 0 170 0 0 Z " fill="rgb(254 240 138 / 0%)" transform="translate(0,0)"/>
<path d="M0 0 C4.40881414 3.3066106 8.69306592 6.53465953 12.91796875 10.03198242 C27.5502464 22.07975451 43.50872154 32.66977084 60 42 C60.77682129 42.44375977 61.55364258 42.88751953 62.35400391 43.34472656 C111.02481758 71.01496812 163.47076636 87.72343873 219 94 C219.72855194 94.0864679 220.45710388 94.17293579 221.20773315 94.26202393 C234.19107927 95.78983218 246.99494286 96.32672732 260.0625 96.25 C261.45941574 96.24584579 261.45941574 96.24584579 262.884552 96.24160767 C285.12296329 96.16442971 307.07729243 94.91574263 329 91 C329.77762695 90.86368164 330.55525391 90.72736328 331.35644531 90.58691406 C366.75759702 84.27101019 401.52713738 73.44724531 434 58 C435.13211914 57.46511963 435.13211914 57.46511963 436.28710938 56.91943359 C440.9143554 54.71644343 445.47003111 52.39596225 450 50 C450.74459473 49.6090918 451.48918945 49.21818359 452.25634766 48.81542969 C467.37159504 40.83596358 482.21543161 32.114442 496.07421875 22.0859375 C499 20 499 20 500 20 C500 60.92 500 101.84 500 144 C335 144 170 144 0 144 C0 96.48 0 48.96 0 0 Z " fill="#FEFD98" transform="translate(0,356)"/>
<path d="M0 0 C7.85331453 4.4876083 7.85331453 4.4876083 10.4375 6.26171875 C11.01411377 6.65359375 11.59072754 7.04546875 12.18481445 7.44921875 C12.78382568 7.85785156 13.38283691 8.26648438 14 8.6875 C21.50884095 13.74136582 29.17159657 18.45933055 37 23 C37.64146973 23.37560059 38.28293945 23.75120117 38.94384766 24.13818359 C78.29828446 47.0682755 120.67954942 62.77785661 165 73 C165.93440918 73.22284668 166.86881836 73.44569336 167.83154297 73.67529297 C186.94320802 78.17779879 206.31431086 79.87500577 225.82763672 81.62304688 C230.55546605 82.0468523 235.27799366 82.51569166 240 83 C240 83.33 240 83.66 240 84 C160.8 84 81.6 84 0 84 C0 56.28 0 28.56 0 0 Z " fill="#010100" transform="translate(0,416)"/>
<path d="M0 0 C0 22.44 0 44.88 0 68 C-72.27 68 -144.54 68 -219 68 C-219 67.67 -219 67.34 -219 67 C-218.29544678 66.97083496 -217.59089355 66.94166992 -216.86499023 66.91162109 C-140.95641641 63.47969739 -67.55220432 40.73472006 -2.75219727 1.00292969 C-1 0 -1 0 0 0 Z " fill="#010101" transform="translate(500,432)"/>
</svg>
