<?xml version="1.0" encoding="UTF-8"?>
<svg version="1.1" xmlns="http://www.w3.org/2000/svg" width="500" height="500">
<path d="M0 0 C165 0 330 0 500 0 C500 165 500 330 500 500 C335 500 170 500 0 500 C0 335 0 170 0 0 Z " fill="rgb(254 240 138 / 0%)" transform="translate(0,0)"/>
<path d="M0 0 C7.85331453 4.4876083 7.85331453 4.4876083 10.4375 6.26171875 C11.01411377 6.65359375 11.59072754 7.04546875 12.18481445 7.44921875 C12.78382568 7.85785156 13.38283691 8.26648438 14 8.6875 C21.50884095 13.74136582 29.17159657 18.45933055 37 23 C37.64146973 23.37560059 38.28293945 23.75120117 38.94384766 24.13818359 C70.99487959 42.8129041 105.28773209 57.04655676 141 67 C141.96856934 67.27005859 142.93713867 67.54011719 143.93505859 67.81835938 C150.91664433 69.72982953 157.93484042 71.42691045 165 73 C166.71775635 73.38285156 166.71775635 73.38285156 168.47021484 73.7734375 C192.116964 78.90616371 215.90790836 81.09493256 240 83 C240 83.33 240 83.66 240 84 C160.8 84 81.6 84 0 84 C0 56.28 0 28.56 0 0 Z " fill="#010100" transform="translate(0,416)"/>
<path d="M0 0 C0 22.44 0 44.88 0 68 C-71.61 68 -143.22 68 -217 68 C-217 67.67 -217 67.34 -217 67 C-216.05721191 66.94054199 -215.11442383 66.88108398 -214.14306641 66.81982422 C-191.77742359 65.37120348 -169.93144918 62.88345613 -147.96643066 58.39916992 C-146.06874849 58.0139554 -144.16868248 57.64054223 -142.26855469 57.26757812 C-93.05038586 47.46908646 -45.39976199 27.15206421 -2.75219727 1.00292969 C-1 0 -1 0 0 0 Z " fill="#010100" transform="translate(500,432)"/>
<path d="M0 0 C4.51791837 2.91581966 8.92799941 5.88440524 13.125 9.25 C33.93098827 25.64916436 58.18200908 38.58809405 82 50 C82.78761719 50.38124023 83.57523437 50.76248047 84.38671875 51.15527344 C122.37385053 69.4273783 164.99707186 82.23000455 207 87 C207.86496094 87.10151367 208.72992188 87.20302734 209.62109375 87.30761719 C245.6758606 91.27064114 284.11416191 91.34048687 320 86 C321.30275879 85.81244141 322.60551758 85.62488281 323.94775391 85.43164062 C385.64568771 76.47809648 443.21563923 53.66170474 495.78295898 20.37597656 C498 19 498 19 500 18 C501.12368387 21.66757929 501.22620987 24.3415549 500 28 C495.31462309 32.35430573 489.63589682 35.05193268 484 38 C481.78638402 39.19257041 479.5728475 40.38528831 477.359375 41.578125 C454.01630955 54.04941821 430.06976736 64.48298541 405 73 C403.99533691 73.34659668 402.99067383 73.69319336 401.95556641 74.05029297 C330.27711494 98.64391475 248.26587526 103.90896493 174 88 C173.10200684 87.81324707 172.20401367 87.62649414 171.27880859 87.43408203 C115.01425552 75.64316801 61.2700069 53.21060966 13.32568359 21.50683594 C11.30357268 20.19668808 9.26117069 18.96320721 7.17578125 17.7578125 C4.31692918 15.99345053 2.10238464 14.61695431 0 12 C-0.85174306 7.83936419 -0.6886396 4.17357333 0 0 Z " fill="#F9F897" transform="translate(0,404)"/>
</svg>
